<?xml version="1.0" standalone="no"?>
<!DOCTYPE svg PUBLIC "-//W3C//DTD SVG 20010904//EN"
 "http://www.w3.org/TR/2001/REC-SVG-20010904/DTD/svg10.dtd">
<svg version="1.0" xmlns="http://www.w3.org/2000/svg"
 width="512.000000pt" height="512.000000pt" viewBox="0 0 512.000000 512.000000"
 preserveAspectRatio="xMidYMid meet">

<g transform="translate(0.000000,512.000000) scale(0.100000,-0.100000)"
fill="#000000" stroke="none">
<path d="M740 5104 c-109 -29 -199 -106 -248 -212 l-27 -57 -3 -757 -2 -758
2100 0 2100 0 0 175 0 175 -552 0 c-308 0 -583 5 -621 10 -123 18 -211 82
-261 190 l-26 55 0 598 0 597 -1202 -1 c-1026 0 -1211 -2 -1258 -15z"/>
<path d="M1085 2506 c-111 -35 -205 -121 -247 -224 -23 -57 -23 -59 -23 -527
0 -468 0 -470 23 -527 33 -81 108 -160 190 -200 l67 -33 1465 0 1465 0 67 33
c82 40 157 119 190 200 23 57 23 59 23 527 0 468 0 470 -23 527 -33 81 -108
160 -190 200 l-67 33 -1450 2 c-1152 1 -1458 -1 -1490 -11z m2460 -223 c78
-41 130 -122 137 -213 l3 -45 -64 0 -64 0 -16 54 c-21 71 -54 96 -126 96 -64
0 -102 -24 -121 -76 -16 -44 -19 -467 -3 -523 15 -53 48 -83 100 -91 113 -17
169 46 169 187 l0 78 -75 0 -75 0 0 60 0 60 140 0 140 0 0 -153 c0 -172 -10
-218 -61 -280 -45 -55 -100 -79 -190 -85 -133 -8 -224 41 -273 147 -20 43 -21
62 -21 331 l0 285 28 58 c49 99 123 139 252 134 57 -3 92 -10 120 -24z m-1817
-430 c-4 -495 -2 -481 -70 -558 -41 -47 -98 -75 -165 -82 l-54 -6 3 69 3 69
35 6 c19 3 46 11 58 18 50 27 52 49 52 499 0 230 3 422 7 425 3 4 35 7 70 7
l64 0 -3 -447z m560 417 c110 -48 157 -144 150 -304 -5 -99 -23 -148 -74 -200
-54 -53 -100 -70 -211 -74 l-103 -4 0 -164 0 -164 -70 0 -70 0 0 471 0 471
163 -4 c142 -4 169 -7 215 -28z m722 -35 l0 -65 -160 0 -160 0 0 -135 0 -135
150 0 150 0 0 -65 0 -65 -150 0 -150 0 0 -140 0 -140 170 0 170 0 0 -65 0 -65
-237 2 -238 3 -3 455 c-1 250 0 461 3 468 3 9 59 12 230 12 l225 0 0 -65z"/>
<path d="M2050 1990 l0 -170 73 0 c128 0 177 46 177 168 0 74 -17 120 -55 150
-23 19 -41 22 -111 22 l-84 0 0 -170z"/>
</g>
</svg>
