<svg version="1.1" id="Layer_1" xmlns="http://www.w3.org/2000/svg" xmlns:xlink="http://www.w3.org/1999/xlink" x="0px" y="0px"
	 width="100%" viewBox="0 0 512 512" enable-background="new 0 0 512 512" xml:space="preserve">
<path fill="#F1F1F1" opacity="1.000000" stroke="none" 
	d="
M64.000000,1.000000 
	C157.354233,1.000000 250.708450,1.000000 344.517334,1.468496 
	C344.968384,30.847237 344.919769,59.757618 345.008698,88.667580 
	C345.022339,93.109810 345.669556,97.550087 345.737854,102.277496 
	C343.635712,114.934807 348.735901,120.998444 360.959656,120.999611 
	C392.250671,121.002594 423.541656,121.005157 454.908783,121.470551 
	C454.924683,153.553452 454.864471,185.173691 454.466003,217.083405 
	C453.971924,224.880310 453.816132,232.387756 453.213013,239.885178 
	C321.960236,239.881165 191.154709,239.887192 60.286652,239.436707 
	C60.106407,231.304489 59.988697,223.628784 59.930355,215.490692 
	C59.993069,152.708725 59.907990,90.388847 60.097218,28.069805 
	C60.124893,18.955296 57.536316,9.265036 64.000000,1.000000 
z"/>
<path fill="#F1F1F1" opacity="1.000000" stroke="none" 
	d="
M450.000000,513.000000 
	C321.644043,513.000000 193.288055,513.000000 64.765610,512.709717 
	C63.066071,509.658783 60.232758,506.912384 60.202267,504.135223 
	C59.916416,478.098114 60.110287,452.055756 60.623573,426.010315 
	C192.333603,426.008698 323.585510,426.011658 454.911255,426.477173 
	C454.989410,451.253998 454.989014,475.568268 455.002655,499.882538 
	C455.005005,504.069244 454.325775,507.937744 450.793396,510.791901 
	C450.273560,511.211914 450.252045,512.248596 450.000000,513.000000 
z"/>
<path fill="#000000" opacity="1.000000" stroke="none" 
	d="
M450.468628,513.000000 
	C450.252045,512.248596 450.273560,511.211914 450.793396,510.791901 
	C454.325775,507.937744 455.005005,504.069244 455.002655,499.882538 
	C454.989014,475.568268 454.989410,451.253998 454.988983,426.022034 
	C455.019806,421.429535 455.046692,417.754730 455.536316,414.045776 
	C461.160248,414.007721 466.322357,414.064209 471.482452,413.985962 
	C479.401917,413.865906 483.967163,409.406128 483.974823,401.474426 
	C484.022858,351.860046 484.044373,302.245453 483.920197,252.631332 
	C483.909393,248.303864 483.391754,243.722473 478.985931,240.718079 
	C478.607635,240.306122 478.310974,240.144272 478.007141,239.991211 
	C478.000000,240.000000 478.015472,239.983551 477.909088,239.665634 
	C470.136566,231.829788 462.470428,224.311859 454.804260,216.793930 
	C454.864471,185.173691 454.924683,153.553452 454.985718,121.017334 
	C454.610352,116.074905 454.234131,112.048347 453.937683,107.684914 
	C453.975006,106.890579 453.932587,106.433113 453.924072,105.697998 
	C453.652008,105.226883 453.346039,105.033424 452.919678,104.532288 
	C419.601746,71.036980 386.398041,37.855545 353.237366,4.631167 
	C352.259979,3.651927 351.735596,2.220569 351.000000,1.000003 
	C404.967926,1.000000 458.935883,1.000000 512.950195,1.000000 
	C512.950195,171.666672 512.950195,342.333344 512.950195,513.000000 
	C492.246063,513.000000 471.591705,513.000000 450.468628,513.000000 
z"/>
<path fill="#000000" opacity="1.000000" stroke="none" 
	d="
M60.165466,426.014893 
	C60.110287,452.055756 59.916416,478.098114 60.202267,504.135223 
	C60.232758,506.912384 63.066071,509.658783 64.299576,512.709717 
	C43.014408,513.000000 22.028816,513.000000 1.047899,513.000000 
	C1.052572,342.333313 1.052572,171.666656 1.052572,1.000000 
	C21.757658,1.000000 42.410172,1.000000 63.531342,1.000000 
	C57.536316,9.265036 60.124893,18.955296 60.097218,28.069805 
	C59.907990,90.388847 59.993069,152.708725 59.633766,215.632156 
	C51.510620,224.152939 43.743427,232.069885 35.662216,240.133240 
	C31.284664,243.503159 29.974039,247.842361 29.979919,252.859207 
	C30.019566,286.682556 30.000526,320.506012 30.000521,354.329407 
	C30.000517,369.658234 29.988989,384.987091 30.004875,400.315918 
	C30.014748,409.840729 34.222694,413.975372 43.865929,414.000122 
	C49.197475,414.013794 54.529022,414.027069 59.923294,414.497498 
	C60.045837,418.641266 60.105656,422.328094 60.165466,426.014893 
z"/>
<path fill="#CCCCCC" opacity="1.000000" stroke="none" 
	d="
M350.571533,1.000003 
	C351.735596,2.220569 352.259979,3.651927 353.237366,4.631167 
	C386.398041,37.855545 419.601746,71.036980 452.998596,104.768356 
	C453.307892,105.659294 453.538635,105.880478 453.890198,105.975647 
	C453.932587,106.433113 453.975006,106.890579 453.478333,107.667633 
	C423.026367,107.983459 393.113129,107.900963 363.200867,108.037331 
	C356.621765,108.067314 350.709503,106.970749 346.023773,101.991272 
	C345.669556,97.550087 345.022339,93.109810 345.008698,88.667580 
	C344.919769,59.757618 344.968384,30.847237 344.986023,1.468496 
	C346.714355,1.000000 348.428711,1.000000 350.571533,1.000003 
z"/>
<path fill="#BE4FC1" opacity="1.000000" stroke="none" 
	d="
M59.860573,414.040558 
	C54.529022,414.027069 49.197475,414.013794 43.865929,414.000122 
	C34.222694,413.975372 30.014748,409.840729 30.004875,400.315918 
	C29.988989,384.987091 30.000517,369.658234 30.000521,354.329407 
	C30.000526,320.506012 30.019566,286.682556 29.979919,252.859207 
	C29.974039,247.842361 31.284664,243.503159 36.132156,240.152283 
	C44.727139,239.981033 52.538166,239.937119 60.349190,239.893204 
	C191.154709,239.887192 321.960236,239.881165 453.707886,239.914001 
	C462.438477,239.963104 470.226990,239.973328 478.015472,239.983551 
	C478.015472,239.983551 478.000000,240.000000 478.106720,240.225708 
	C478.498138,240.623672 478.782867,240.795944 479.067566,240.968201 
	C483.391754,243.722473 483.909393,248.303864 483.920197,252.631332 
	C484.044373,302.245453 484.022858,351.860046 483.974823,401.474426 
	C483.967163,409.406128 479.401917,413.865906 471.482452,413.985962 
	C466.322357,414.064209 461.160248,414.007721 455.170593,413.823853 
	C452.716797,413.425049 451.091461,413.029388 449.466095,413.029022 
	C321.308289,413.000366 193.150482,412.998657 64.992691,413.045746 
	C63.281864,413.046356 61.571274,413.694611 59.860573,414.040558 
M135.674637,368.167450 
	C141.522400,368.567230 145.099350,365.782654 146.857803,360.312805 
	C147.671371,357.782043 148.655685,355.305695 149.580048,352.811157 
	C152.809677,344.095612 156.046921,335.382843 159.732590,325.453094 
	C164.187607,338.201416 168.194641,349.633179 172.174820,361.074249 
	C173.780502,365.689789 176.908707,368.138733 181.868958,368.192627 
	C186.942322,368.247742 190.363998,366.144196 192.115005,361.188263 
	C195.105606,352.723907 198.314133,344.336487 201.432938,335.917450 
	C204.840652,326.718475 208.373352,317.563416 211.617493,308.307159 
	C213.904388,301.782166 210.839722,296.401703 204.841812,296.219269 
	C200.102997,296.075134 197.177750,298.665192 195.626114,303.131561 
	C191.643631,314.595001 187.546494,326.018707 183.464020,337.447174 
	C183.061325,338.574493 182.443634,339.625061 181.590195,341.414948 
	C177.262070,328.740936 173.235001,316.948090 169.207367,305.155426 
	C168.885071,304.211823 168.547409,303.273315 168.236176,302.326111 
	C166.940933,298.384308 164.158234,296.161102 160.081451,296.209106 
	C156.093994,296.256104 153.232101,298.291046 151.787125,302.226349 
	C147.134796,314.896484 142.399445,327.536194 137.308090,341.231354 
	C132.662445,327.928040 128.459854,315.687286 124.103004,303.501678 
	C121.829453,297.142853 117.270844,294.802307 111.784966,296.857025 
	C106.689438,298.765564 105.087479,302.887054 107.400688,309.192108 
	C113.757088,326.517548 120.284584,343.780151 126.662155,361.097900 
	C128.116394,365.046753 130.520294,367.629272 135.674637,368.167450 
M334.764893,362.372894 
	C345.743042,352.336487 344.095856,340.176910 330.234558,330.594086 
	C330.937561,330.109314 331.575226,329.675781 332.206573,329.233307 
	C343.302216,321.456390 342.621887,306.384033 330.556244,300.277069 
	C326.690125,298.320251 322.013092,297.369141 317.642975,297.130127 
	C308.836365,296.648560 299.985718,296.946381 291.153351,296.970428 
	C284.201141,296.989380 281.782867,299.326202 281.766510,306.185394 
	C281.725159,323.517029 281.727631,340.848877 281.763489,358.180511 
	C281.777527,364.966980 284.228271,367.541077 291.093292,367.662048 
	C299.423187,367.808838 307.817902,368.302826 316.070374,367.488800 
	C322.199341,366.884247 328.146301,364.434998 334.764893,362.372894 
M265.988770,296.988495 
	C254.494919,296.980743 243.001007,296.951782 231.507217,296.973022 
	C224.376816,296.986176 221.951889,299.421570 221.942795,306.580292 
	C221.921402,323.404694 221.924759,340.229156 221.941940,357.053589 
	C221.949936,364.892395 224.113571,367.399261 231.845154,367.558075 
	C242.334854,367.773560 252.835693,367.765442 263.325500,367.549164 
	C270.783386,367.395416 273.803192,365.053436 273.778503,360.283508 
	C273.753021,355.357880 270.380737,353.164093 262.732819,353.145935 
	C255.292007,353.128265 247.851120,353.142120 240.213684,353.142120 
	C240.213684,348.119934 240.213684,343.727936 240.213684,338.809875 
	C242.807251,338.809875 245.101913,338.864868 247.393143,338.799347 
	C253.704147,338.618835 260.030487,338.598083 266.317505,338.097198 
	C270.032837,337.801208 271.816010,335.024750 271.711060,331.453217 
	C271.607666,327.932739 269.816772,325.384094 266.059540,324.945557 
	C263.092926,324.599304 260.093689,324.433929 257.105927,324.388580 
	C251.519989,324.303680 245.931870,324.364166 240.287872,324.364166 
	C240.287872,319.526550 240.287872,315.480835 240.287872,311.056244 
	C248.814270,311.056244 256.952393,311.125031 265.088654,311.031982 
	C270.468567,310.970490 273.479004,308.765747 273.701904,304.649933 
	C273.954193,299.991150 271.279266,297.661011 265.988770,296.988495 
M379.481323,296.961884 
	C373.158722,296.962128 366.835907,296.932983 360.513550,296.970703 
	C353.806915,297.010742 351.098419,299.643494 351.081482,306.304077 
	C351.038239,323.275208 351.048035,340.246521 351.077545,357.217682 
	C351.089722,364.204712 354.173035,367.861359 360.020691,368.002502 
	C366.235901,368.152527 369.605560,364.525482 369.722107,357.398468 
	C369.802948,352.454376 369.737671,347.507904 369.737671,341.935364 
	C376.062744,341.935364 381.845947,342.138580 387.610199,341.894196 
	C400.653259,341.341156 409.235992,333.434326 409.958618,321.591400 
	C410.774200,308.224762 403.936981,299.352417 390.930664,297.310638 
	C387.510437,296.773712 383.961639,297.055847 379.481323,296.961884 
z"/>
<path fill="#E8E8E8" opacity="1.000000" stroke="none" 
	d="
M345.737854,102.277496 
	C350.709503,106.970749 356.621765,108.067314 363.200867,108.037331 
	C393.113129,107.900963 423.026367,107.983459 453.398590,108.004509 
	C454.234131,112.048347 454.610352,116.074905 454.909607,120.554672 
	C423.541656,121.005157 392.250671,121.002594 360.959656,120.999611 
	C348.735901,120.998444 343.635712,114.934807 345.737854,102.277496 
z"/>
<path fill="#9A439F" opacity="1.000000" stroke="none" 
	d="
M60.286652,239.436707 
	C52.538166,239.937119 44.727139,239.981033 36.446175,240.005890 
	C43.743427,232.069885 51.510620,224.152939 59.574402,216.094513 
	C59.988697,223.628784 60.106407,231.304489 60.286652,239.436707 
z"/>
<path fill="#9A439F" opacity="1.000000" stroke="none" 
	d="
M477.909088,239.665634 
	C470.226990,239.973328 462.438477,239.963104 454.155151,239.924042 
	C453.816132,232.387756 453.971924,224.880310 454.466003,217.083405 
	C462.470428,224.311859 470.136566,231.829788 477.909088,239.665634 
z"/>
<path fill="#E0E0E0" opacity="1.000000" stroke="none" 
	d="
M59.923294,414.497498 
	C61.571274,413.694611 63.281864,413.046356 64.992691,413.045746 
	C193.150482,412.998657 321.308289,413.000366 449.466095,413.029022 
	C451.091461,413.029388 452.716797,413.425049 454.707855,413.858063 
	C455.046692,417.754730 455.019806,421.429535 454.915161,425.559448 
	C323.585510,426.011658 192.333603,426.008698 60.623573,426.010315 
	C60.105656,422.328094 60.045837,418.641266 59.923294,414.497498 
z"/>
<path fill="#E8E8E8" opacity="1.000000" stroke="none" 
	d="
M453.924072,105.697998 
	C453.538635,105.880478 453.307892,105.659294 453.119019,105.076019 
	C453.346039,105.033424 453.652008,105.226883 453.924072,105.697998 
z"/>
<path fill="#9A439F" opacity="1.000000" stroke="none" 
	d="
M478.985931,240.718079 
	C478.782867,240.795944 478.498138,240.623672 478.113892,240.216919 
	C478.310974,240.144272 478.607635,240.306122 478.985931,240.718079 
z"/>
<path fill="#FEFCFE" opacity="1.000000" stroke="none" 
	d="
M135.257797,368.136902 
	C130.520294,367.629272 128.116394,365.046753 126.662155,361.097900 
	C120.284584,343.780151 113.757088,326.517548 107.400688,309.192108 
	C105.087479,302.887054 106.689438,298.765564 111.784966,296.857025 
	C117.270844,294.802307 121.829453,297.142853 124.103004,303.501678 
	C128.459854,315.687286 132.662445,327.928040 137.308090,341.231354 
	C142.399445,327.536194 147.134796,314.896484 151.787125,302.226349 
	C153.232101,298.291046 156.093994,296.256104 160.081451,296.209106 
	C164.158234,296.161102 166.940933,298.384308 168.236176,302.326111 
	C168.547409,303.273315 168.885071,304.211823 169.207367,305.155426 
	C173.235001,316.948090 177.262070,328.740936 181.590195,341.414948 
	C182.443634,339.625061 183.061325,338.574493 183.464020,337.447174 
	C187.546494,326.018707 191.643631,314.595001 195.626114,303.131561 
	C197.177750,298.665192 200.102997,296.075134 204.841812,296.219269 
	C210.839722,296.401703 213.904388,301.782166 211.617493,308.307159 
	C208.373352,317.563416 204.840652,326.718475 201.432938,335.917450 
	C198.314133,344.336487 195.105606,352.723907 192.115005,361.188263 
	C190.363998,366.144196 186.942322,368.247742 181.868958,368.192627 
	C176.908707,368.138733 173.780502,365.689789 172.174820,361.074249 
	C168.194641,349.633179 164.187607,338.201416 159.732590,325.453094 
	C156.046921,335.382843 152.809677,344.095612 149.580048,352.811157 
	C148.655685,355.305695 147.671371,357.782043 146.857803,360.312805 
	C145.099350,365.782654 141.522400,368.567230 135.257797,368.136902 
z"/>
<path fill="#FEFCFE" opacity="1.000000" stroke="none" 
	d="
M334.469604,362.590149 
	C328.146301,364.434998 322.199341,366.884247 316.070374,367.488800 
	C307.817902,368.302826 299.423187,367.808838 291.093292,367.662048 
	C284.228271,367.541077 281.777527,364.966980 281.763489,358.180511 
	C281.727631,340.848877 281.725159,323.517029 281.766510,306.185394 
	C281.782867,299.326202 284.201141,296.989380 291.153351,296.970428 
	C299.985718,296.946381 308.836365,296.648560 317.642975,297.130127 
	C322.013092,297.369141 326.690125,298.320251 330.556244,300.277069 
	C342.621887,306.384033 343.302216,321.456390 332.206573,329.233307 
	C331.575226,329.675781 330.937561,330.109314 330.234558,330.594086 
	C344.095856,340.176910 345.743042,352.336487 334.469604,362.590149 
M312.251129,353.707458 
	C314.390839,353.505951 316.537140,353.357269 318.668854,353.091736 
	C322.910736,352.563293 324.719086,349.732605 324.643158,345.850403 
	C324.566284,341.923035 322.517426,339.201324 318.294159,338.951080 
	C313.171112,338.647491 308.034180,338.586609 302.906952,338.342712 
	C300.413239,338.224060 299.466522,339.185638 299.286469,341.775299 
	C298.456268,353.717255 298.379578,353.711914 310.325439,353.706543 
	C310.657074,353.706390 310.988678,353.707123 312.251129,353.707458 
M303.707825,310.891174 
	C302.260254,311.722137 299.781830,312.345459 299.564545,313.424225 
	C298.986481,316.294312 299.193542,319.380768 299.507935,322.336548 
	C299.601288,323.213989 301.074371,324.614075 301.935547,324.629364 
	C306.732971,324.714478 311.552643,324.639679 316.333191,324.241302 
	C320.287262,323.911804 322.946960,321.709717 322.637238,317.422577 
	C322.337738,313.276672 319.525665,311.308624 315.612762,311.059753 
	C311.972412,310.828308 308.310608,310.933716 303.707825,310.891174 
z"/>
<path fill="#FEFDFE" opacity="1.000000" stroke="none" 
	d="
M266.429169,297.010071 
	C271.279266,297.661011 273.954193,299.991150 273.701904,304.649933 
	C273.479004,308.765747 270.468567,310.970490 265.088654,311.031982 
	C256.952393,311.125031 248.814270,311.056244 240.287872,311.056244 
	C240.287872,315.480835 240.287872,319.526550 240.287872,324.364166 
	C245.931870,324.364166 251.519989,324.303680 257.105927,324.388580 
	C260.093689,324.433929 263.092926,324.599304 266.059540,324.945557 
	C269.816772,325.384094 271.607666,327.932739 271.711060,331.453217 
	C271.816010,335.024750 270.032837,337.801208 266.317505,338.097198 
	C260.030487,338.598083 253.704147,338.618835 247.393143,338.799347 
	C245.101913,338.864868 242.807251,338.809875 240.213684,338.809875 
	C240.213684,343.727936 240.213684,348.119934 240.213684,353.142120 
	C247.851120,353.142120 255.292007,353.128265 262.732819,353.145935 
	C270.380737,353.164093 273.753021,355.357880 273.778503,360.283508 
	C273.803192,365.053436 270.783386,367.395416 263.325500,367.549164 
	C252.835693,367.765442 242.334854,367.773560 231.845154,367.558075 
	C224.113571,367.399261 221.949936,364.892395 221.941940,357.053589 
	C221.924759,340.229156 221.921402,323.404694 221.942795,306.580292 
	C221.951889,299.421570 224.376816,296.986176 231.507217,296.973022 
	C243.001007,296.951782 254.494919,296.980743 266.429169,297.010071 
z"/>
<path fill="#FEFCFE" opacity="1.000000" stroke="none" 
	d="
M379.976593,296.961853 
	C383.961639,297.055847 387.510437,296.773712 390.930664,297.310638 
	C403.936981,299.352417 410.774200,308.224762 409.958618,321.591400 
	C409.235992,333.434326 400.653259,341.341156 387.610199,341.894196 
	C381.845947,342.138580 376.062744,341.935364 369.737671,341.935364 
	C369.737671,347.507904 369.802948,352.454376 369.722107,357.398468 
	C369.605560,364.525482 366.235901,368.152527 360.020691,368.002502 
	C354.173035,367.861359 351.089722,364.204712 351.077545,357.217682 
	C351.048035,340.246521 351.038239,323.275208 351.081482,306.304077 
	C351.098419,299.643494 353.806915,297.010742 360.513550,296.970703 
	C366.835907,296.932983 373.158722,296.962128 379.976593,296.961853 
M370.761749,311.123688 
	C370.296967,316.568359 369.832184,322.013062 369.321991,327.989838 
	C375.125488,327.989838 379.907562,328.190155 384.665466,327.936493 
	C389.986633,327.652863 392.698944,324.731201 392.825806,319.770233 
	C392.954834,314.725952 389.982941,311.361633 384.652618,311.038147 
	C380.352417,310.777191 376.025177,310.961609 370.761749,311.123688 
z"/>
<path fill="#C054C3" opacity="1.000000" stroke="none" 
	d="
M311.785706,353.707458 
	C310.988678,353.707123 310.657074,353.706390 310.325439,353.706543 
	C298.379578,353.711914 298.456268,353.717255 299.286469,341.775299 
	C299.466522,339.185638 300.413239,338.224060 302.906952,338.342712 
	C308.034180,338.586609 313.171112,338.647491 318.294159,338.951080 
	C322.517426,339.201324 324.566284,341.923035 324.643158,345.850403 
	C324.719086,349.732605 322.910736,352.563293 318.668854,353.091736 
	C316.537140,353.357269 314.390839,353.505951 311.785706,353.707458 
z"/>
<path fill="#C055C3" opacity="1.000000" stroke="none" 
	d="
M304.183044,310.890991 
	C308.310608,310.933716 311.972412,310.828308 315.612762,311.059753 
	C319.525665,311.308624 322.337738,313.276672 322.637238,317.422577 
	C322.946960,321.709717 320.287262,323.911804 316.333191,324.241302 
	C311.552643,324.639679 306.732971,324.714478 301.935547,324.629364 
	C301.074371,324.614075 299.601288,323.213989 299.507935,322.336548 
	C299.193542,319.380768 298.986481,316.294312 299.564545,313.424225 
	C299.781830,312.345459 302.260254,311.722137 304.183044,310.890991 
z"/>
<path fill="#BF51C2" opacity="1.000000" stroke="none" 
	d="
M371.235840,311.036072 
	C376.025177,310.961609 380.352417,310.777191 384.652618,311.038147 
	C389.982941,311.361633 392.954834,314.725952 392.825806,319.770233 
	C392.698944,324.731201 389.986633,327.652863 384.665466,327.936493 
	C379.907562,328.190155 375.125488,327.989838 369.321991,327.989838 
	C369.832184,322.013062 370.296967,316.568359 371.235840,311.036072 
z"/>
</svg>