<?xml version="1.0" standalone="no"?>
<!DOCTYPE svg PUBLIC "-//W3C//DTD SVG 20010904//EN"
 "http://www.w3.org/TR/2001/REC-SVG-20010904/DTD/svg10.dtd">
<svg version="1.0" xmlns="http://www.w3.org/2000/svg"
 width="512.000000pt" height="512.000000pt" viewBox="0 0 512.000000 512.000000"
 preserveAspectRatio="xMidYMid meet">

<g transform="translate(0.000000,512.000000) scale(0.100000,-0.100000)"
fill="#000000" stroke="none">
<path d="M315 5064 c-61 -21 -110 -68 -142 -132 l-28 -57 0 -2315 0 -2315 28
-57 c16 -32 45 -71 65 -88 78 -65 -95 -60 2322 -60 2417 0 2244 -5 2322 60 20
17 49 56 65 88 l28 57 0 2315 0 2315 -28 57 c-16 32 -45 71 -65 88 -78 65 95
60 -2326 59 -1884 0 -2207 -3 -2241 -15z m4465 -122 c19 -9 43 -33 55 -52 20
-35 20 -40 20 -2330 0 -2290 0 -2295 -20 -2330 -12 -19 -36 -43 -55 -52 -33
-17 -160 -18 -2220 -18 -2060 0 -2187 1 -2220 18 -19 9 -43 33 -55 52 -20 35
-20 40 -20 2330 0 2290 0 2295 20 2330 12 19 36 43 55 52 33 17 160 18 2220
18 2060 0 2187 -1 2220 -18z"/>
<path d="M450 4807 c-14 -7 -33 -28 -42 -47 -17 -33 -18 -159 -18 -2200 0
-2041 1 -2167 18 -2200 9 -19 28 -40 42 -47 37 -19 4183 -19 4220 0 14 7 33
28 42 47 17 33 18 159 18 2200 0 2041 -1 2167 -18 2200 -9 19 -28 40 -42 47
-37 19 -4183 19 -4220 0z m1610 -732 l0 -625 -68 0 -69 0 1 58 c0 41 -6 69
-21 100 l-23 42 22 42 c45 86 24 178 -55 242 l-39 31 -509 3 c-485 2 -511 2
-546 -17 -44 -22 -64 -42 -88 -90 -24 -47 -17 -140 13 -181 l23 -30 -23 -31
c-19 -25 -23 -43 -23 -100 l0 -69 -72 0 -73 0 0 625 0 625 775 0 775 0 0 -625z
m2550 305 l0 -320 -385 0 c-366 0 -388 1 -425 20 -23 12 -59 20 -87 20 -29 0
-65 -8 -88 -20 -37 -19 -59 -20 -332 -20 -284 0 -293 1 -330 22 -51 30 -132
30 -190 0 -40 -21 -53 -22 -318 -22 l-275 0 0 320 0 320 1215 0 1215 0 0 -320z
m-1935 -472 c9 -30 14 -33 50 -33 35 0 42 4 55 32 15 32 15 33 89 33 l74 0 -7
-47 c-10 -78 -50 -149 -128 -229 -109 -112 -167 -154 -214 -154 -54 0 -124
-37 -148 -78 -39 -69 -101 -319 -127 -517 -16 -119 -17 -355 -1 -844 6 -222
12 -528 12 -680 0 -243 2 -280 18 -311 26 -53 67 -63 243 -58 163 4 190 13
213 71 7 18 23 166 36 330 13 163 25 296 26 294 2 -2 13 -138 25 -302 24 -336
30 -362 89 -382 40 -14 254 -16 319 -4 25 5 54 20 69 35 26 26 27 28 34 223 4
109 10 261 14 339 l6 140 204 -4 c225 -5 613 13 657 30 15 6 30 20 32 32 3 11
-10 188 -28 391 -19 204 -32 376 -30 382 3 7 24 18 47 23 70 18 156 52 181 72
37 29 40 72 11 174 -93 332 -178 476 -343 584 -78 52 -126 66 -167 50 -24 -9
-33 -4 -99 52 -39 34 -73 62 -75 64 -2 1 13 32 33 70 40 78 69 183 63 225 l-5
29 354 0 353 0 0 -1760 0 -1760 -1215 0 -1215 0 0 1760 0 1760 243 0 243 0 9
-32z m855 23 c0 -18 32 -41 56 -41 14 0 35 11 48 25 20 21 32 25 85 25 76 0
81 -9 57 -99 -22 -85 -63 -153 -157 -260 -75 -86 -75 -86 -125 -86 -34 -1 -67
-10 -109 -32 l-60 -31 -28 29 c-30 31 -81 49 -138 49 -29 0 -55 13 -115 56
-44 31 -83 59 -87 64 -5 4 5 27 22 51 36 52 70 143 78 211 l6 48 233 0 c137 0
234 -4 234 -9z m-1741 -107 c27 -35 26 -59 -4 -89 l-24 -25 -472 0 c-472 0
-473 0 -496 22 -29 27 -30 71 -3 98 19 19 33 20 499 20 l480 0 20 -26z m-4
-259 c30 -30 31 -54 4 -89 l-20 -26 -480 0 c-466 0 -480 1 -499 20 -26 26 -25
68 2 97 l21 23 474 0 474 0 24 -25z m1125 -51 c0 -2 -19 -4 -42 -4 -40 0 -41
0 -23 20 16 18 19 18 41 3 13 -8 24 -17 24 -19z m889 -44 l55 -48 -45 -12
c-42 -12 -137 -9 -159 5 -12 7 67 105 84 105 6 -1 35 -23 65 -50z m-586 -94
c15 -15 69 -223 91 -356 31 -179 40 -381 27 -600 -15 -272 -28 -557 -42 -945
-8 -218 -15 -322 -23 -327 -6 -4 -62 -8 -123 -8 -102 0 -113 2 -113 18 0 10
-20 292 -45 627 -24 336 -49 681 -55 769 l-11 158 -51 90 c-56 98 -82 119
-123 100 -43 -20 -42 -53 8 -144 34 -64 46 -98 51 -148 5 -45 -10 -281 -49
-755 -31 -380 -58 -696 -60 -703 -3 -9 -37 -12 -123 -12 l-119 0 -6 506 c-4
279 -12 621 -18 761 -13 280 -4 452 32 639 28 148 77 317 96 332 26 19 636 17
656 -2z m873 -24 c81 -53 144 -124 183 -207 37 -78 121 -324 121 -355 0 -15
-12 -23 -57 -35 -141 -39 -173 -61 -192 -130 -6 -23 1 -138 22 -374 17 -187
28 -343 25 -347 -19 -18 -548 -32 -698 -18 l-65 6 2 42 c34 651 36 697 24 847
-12 165 -39 339 -70 456 -21 82 -23 77 56 117 l53 26 44 -34 c68 -51 133 -70
228 -63 81 5 175 40 228 85 14 12 28 21 31 22 3 0 32 -17 65 -38z m-2026 -834
l0 -808 -63 0 -64 0 1 63 c1 46 -5 73 -21 103 l-21 42 25 48 c29 58 27 124 -6
180 -20 34 -20 35 -1 66 44 72 35 159 -23 225 -56 64 -45 63 -595 63 l-498 0
-46 -29 c-85 -54 -112 -163 -63 -249 l25 -44 -22 -31 c-33 -47 -36 -130 -6
-186 l24 -44 -24 -46 c-19 -38 -23 -56 -19 -104 l5 -58 -76 3 -77 3 -3 795
c-1 437 0 800 2 805 2 7 270 10 775 10 l771 0 0 -807z m-260 -165 c25 -32 20
-69 -12 -95 -19 -17 -57 -18 -492 -18 -461 0 -473 0 -494 20 -28 26 -29 73 -2
100 19 19 33 20 499 20 l480 0 21 -27z m-12 -250 c32 -27 37 -64 12 -96 l-21
-27 -480 0 c-466 0 -480 1 -499 20 -26 26 -25 68 2 97 l21 23 473 0 c435 0
473 -1 492 -17z m-8 -256 c35 -18 48 -61 29 -95 l-15 -27 -494 0 -494 0 -15
27 c-19 34 -6 77 29 95 19 10 135 13 480 13 345 0 461 -3 480 -13z m280 -842
l0 -586 -122 3 -122 3 -23 90 c-13 50 -27 146 -32 213 -11 141 -37 213 -94
257 -104 78 -231 45 -294 -79 -25 -48 -27 -62 -34 -251 -4 -110 -10 -208 -14
-218 -5 -11 -18 -17 -40 -17 -32 0 -33 1 -40 58 -4 31 -8 125 -10 208 -2 137
-4 155 -27 205 -28 60 -55 92 -96 113 -79 40 -155 26 -218 -39 -52 -53 -71
-111 -79 -235 -3 -52 -17 -143 -32 -202 l-25 -108 -124 0 -124 0 0 585 0 585
775 0 775 0 0 -585z m-1006 -106 c47 -22 59 -68 61 -234 2 -82 6 -171 10 -197
7 -47 7 -48 -20 -48 -27 0 -27 1 -21 45 19 142 20 130 -9 154 -34 26 -50 26
-74 2 -18 -18 -23 -38 -37 -148 l-6 -53 -40 0 c-33 0 -38 3 -34 18 21 67 45
202 51 282 8 106 22 150 56 174 28 19 31 19 63 5z m527 1 c35 -19 51 -70 59
-185 5 -60 18 -147 29 -192 12 -45 21 -86 21 -92 0 -6 -17 -11 -39 -11 l-38 0
-6 81 c-9 117 -46 161 -103 124 -25 -16 -26 -18 -19 -111 l7 -94 -24 0 c-24 0
-24 1 -17 53 4 28 8 113 8 187 1 154 11 201 48 230 29 22 45 25 74 10z"/>
</g>
</svg>
