<svg width="500" height="500" viewBox="0 0 24 24" fill="none" xmlns="http://www.w3.org/2000/svg"><path fill-rule="evenodd" clip-rule="evenodd" d="M21.997 17.6678C21.997 17.6678 21.3191 17.9667 21.0319 18.3471C20.403 19.1798 20 19.5 19.189 19.5C18.378 19.5 17.975 19.1798 17.3461 18.3471C16.8939 17.7483 16.6963 17.5913 16.3061 17.5913C15.9159 17.5913 15.7183 17.7483 15.2661 18.3471C14.6372 19.1798 14.2342 19.5 13.4232 19.5C12.6122 19.5 12.2092 19.1798 11.5803 18.3471C11.1281 17.7483 10.9305 17.5913 10.5403 17.5913C10.1501 17.5913 9.95254 17.7483 9.50033 18.3471C8.87145 19.1798 8.46846 19.5 7.65744 19.5C6.84643 19.5 6.44343 19.1798 5.81456 18.3471C5.36235 17.7483 5.16475 17.5913 4.77456 17.5913C4.38437 17.5913 4.18677 17.7483 3.73456 18.3471C3.23675 19.0063 2.00797 19.4565 2.00797 19.4565L2 18.438C2 18.438 2.6464 18.1385 2.93168 17.7607C3.56055 16.928 3.96354 16.6078 4.77456 16.6078C5.58557 16.6078 5.98857 16.928 6.61744 17.7607C7.06965 18.3595 7.26726 18.5165 7.65744 18.5165C8.04763 18.5165 8.24523 18.3595 8.69745 17.7607C9.32632 16.928 9.72931 16.6078 10.5403 16.6078C11.3513 16.6078 11.7543 16.928 12.3832 17.7607C12.8354 18.3595 13.033 18.5165 13.4232 18.5165C13.8134 18.5165 14.011 18.3595 14.4632 17.7607C15.0921 16.928 15.4951 16.6078 16.3061 16.6078C17.1171 16.6078 17.5201 16.928 18.149 17.7607C18.6012 18.3595 18.7988 18.5165 19.189 18.5165C19.5792 18.5165 19.7768 18.3595 20.229 17.7607C20.7294 17.0981 22 16.6496 22 16.6496L21.997 17.6678ZM10.1098 13.424C9.38864 12.8478 8.81089 12.2296 8.36496 11.5853C7.35598 11.7025 6.34269 11.5841 5.38306 11.2634C6.02254 12.633 7.40267 13.5809 9.00215 13.5809C9.38644 13.5809 9.75806 13.5262 10.1098 13.424ZM13.0008 9.54493C13.0008 9.37373 12.9902 9.20501 12.9697 9.03941C11.9125 10.2469 10.7018 11.0002 9.45168 11.3651C9.89266 11.9203 10.4549 12.4528 11.1498 12.95C12.2627 12.2334 13.0008 10.9761 13.0008 9.54493ZM5.00351 9.54493C5.00351 9.71328 5.01373 9.87923 5.03356 10.0422C5.90777 10.4456 6.85056 10.6497 7.79993 10.6147C7.04878 9.04446 6.9982 7.3723 7.49652 5.80487C6.03436 6.40513 5.00351 7.85353 5.00351 9.54493ZM8.66836 5.52285C7.98679 7.11452 7.96638 8.85825 8.85643 10.4749C10.2106 10.1627 11.5311 9.32962 12.636 7.85836C12.0031 6.47161 10.614 5.50899 9.00215 5.50899C8.88974 5.50899 8.77842 5.51367 8.66836 5.52285ZM9.00215 14.5899C6.24167 14.5899 4.00386 12.3312 4.00386 9.54493C4.00386 6.75869 6.24167 4.5 9.00215 4.5C11.7626 4.5 14.0004 6.75869 14.0004 9.54493C14.0004 12.3312 11.7626 14.5899 9.00215 14.5899Z" fill="currentColor"></path></svg>