<?xml version="1.0" standalone="no"?>
<!DOCTYPE svg PUBLIC "-//W3C//DTD SVG 20010904//EN"
 "http://www.w3.org/TR/2001/REC-SVG-20010904/DTD/svg10.dtd">
<svg version="1.0" xmlns="http://www.w3.org/2000/svg"
 width="512.000000pt" height="512.000000pt" viewBox="0 0 512.000000 512.000000"
 preserveAspectRatio="xMidYMid meet">

<g transform="translate(0.000000,512.000000) scale(0.100000,-0.100000)"
fill="#000000" stroke="none">
<path d="M1443 5105 c-45 -19 -1381 -1217 -1416 -1268 -32 -48 -34 -86 -8
-143 14 -31 30 -47 63 -63 l44 -21 1375 0 c1339 0 1375 1 1417 20 33 15 47 29
62 62 27 59 25 97 -7 145 -38 57 -1381 1257 -1423 1272 -42 14 -67 14 -107 -4z"/>
<path d="M300 1805 l0 -1505 -90 0 c-112 0 -159 -20 -190 -80 -25 -50 -25 -90
0 -140 36 -70 70 -80 280 -80 210 0 244 10 280 80 19 37 20 58 20 430 l0 390
150 0 150 0 0 -390 c0 -372 1 -393 20 -430 23 -45 80 -80 130 -80 50 0 107 35
130 80 16 31 20 59 20 130 l0 90 300 0 300 0 0 -90 c0 -71 4 -99 20 -130 23
-45 80 -80 130 -80 50 0 107 35 130 80 19 37 20 58 20 430 l0 390 150 0 150 0
0 -390 c0 -372 1 -393 20 -430 36 -70 70 -80 280 -80 210 0 244 10 280 80 25
50 25 90 0 140 -31 60 -78 80 -190 80 l-90 0 0 1505 0 1505 -1200 0 -1200 0 0
-1505z m1325 1190 c270 -57 475 -309 475 -585 0 -324 -276 -600 -600 -600
-276 0 -528 205 -585 475 -43 204 16 397 164 546 149 149 342 207 546 164z
m-725 -1645 l0 -150 -150 0 -150 0 0 150 0 150 150 0 150 0 0 -150z m900 0 l0
-150 -300 0 -300 0 0 150 0 150 300 0 300 0 0 -150z m600 0 l0 -150 -150 0
-150 0 0 150 0 150 150 0 150 0 0 -150z m-600 -600 l0 -150 -300 0 -300 0 0
150 0 150 300 0 300 0 0 -150z"/>
<path d="M3000 2095 l0 -303 32 -13 c43 -18 95 -64 125 -113 14 -22 119 -327
234 -679 142 -436 219 -657 241 -695 54 -90 147 -175 241 -222 136 -67 174
-71 626 -68 381 3 398 4 442 24 60 28 125 93 152 153 30 64 30 178 0 242 -27
60 -92 125 -152 153 -43 20 -65 21 -386 26 -368 6 -372 6 -449 65 -69 52 -80
81 -255 651 -92 302 -180 574 -196 604 -41 82 -81 137 -154 214 -120 125 -286
217 -458 255 l-43 9 0 -303z"/>
</g>
</svg>
