<?xml version="1.0" standalone="no"?>
<!DOCTYPE svg PUBLIC "-//W3C//DTD SVG 20010904//EN"
 "http://www.w3.org/TR/2001/REC-SVG-20010904/DTD/svg10.dtd">
<svg version="1.0" xmlns="http://www.w3.org/2000/svg"
 width="512.000000pt" height="512.000000pt" viewBox="0 0 512.000000 512.000000"
 preserveAspectRatio="xMidYMid meet">

<g transform="translate(0.000000,512.000000) scale(0.100000,-0.100000)"
fill="#000000" stroke="none">
<path d="M1090 4942 c-24 -12 -164 -174 -468 -542 -238 -289 -440 -539 -448
-557 -17 -39 -17 -88 -1 -125 15 -33 1160 -1303 1165 -1291 17 46 104 303 108
319 6 21 -10 39 -584 672 l-183 202 303 0 303 0 115 -360 c63 -198 117 -360
120 -360 3 0 25 34 49 76 24 42 73 116 108 165 34 48 63 92 63 97 0 8 -102
330 -117 367 -4 13 33 15 265 15 l270 0 98 62 c133 83 299 161 458 214 126 42
129 43 81 44 l-50 0 -220 341 c-121 188 -221 345 -223 350 -2 5 101 9 230 9
l233 0 262 -318 262 -319 143 -6 c79 -3 176 -11 216 -17 41 -7 75 -10 77 -8 1
1 -174 217 -389 478 -273 332 -402 480 -426 492 -33 17 -97 18 -910 18 -813 0
-877 -1 -910 -18z m618 -324 c-8 -13 -101 -170 -207 -350 l-193 -328 -325 0
-324 0 72 88 c40 48 169 205 288 350 l216 262 244 0 243 0 -14 -22z m486 -412
c92 -142 165 -260 163 -262 -2 -2 -155 -3 -339 -2 l-335 3 160 273 c127 216
163 270 173 260 6 -7 87 -129 178 -272z"/>
<path d="M3072 3663 c-57 -28 -77 -67 -124 -242 l-44 -164 -76 -32 c-93 -40
-180 -91 -280 -167 -43 -32 -82 -58 -88 -58 -6 0 -81 19 -165 42 -143 38 -157
40 -196 29 -23 -7 -54 -25 -69 -39 -32 -33 -258 -441 -266 -482 -14 -67 1 -94
131 -234 l123 -133 -10 -49 c-13 -64 -13 -364 0 -428 l10 -49 -123 -133 c-130
-140 -145 -167 -131 -234 8 -41 234 -449 266 -482 15 -14 46 -32 69 -39 39
-11 53 -9 196 29 84 23 159 42 166 42 6 0 30 -15 53 -34 75 -61 216 -148 304
-186 l86 -37 44 -164 c71 -264 63 -259 412 -259 349 0 342 -5 412 258 l43 163
86 38 c88 39 231 127 305 187 23 19 47 34 53 34 7 0 82 -19 166 -42 143 -38
157 -40 196 -29 23 7 54 25 69 39 43 45 262 451 268 498 6 58 -14 91 -143 229
l-113 120 10 55 c13 72 13 361 0 425 l-10 49 113 121 c129 138 149 170 143
229 -6 47 -224 453 -268 498 -15 14 -46 32 -69 39 -39 11 -53 9 -196 -29 -84
-23 -159 -42 -166 -42 -6 0 -30 15 -53 34 -74 60 -217 148 -305 187 l-86 38
-43 163 c-71 263 -63 258 -414 258 -214 0 -258 -3 -286 -17z m422 -445 c53
-200 59 -208 189 -255 145 -52 264 -124 380 -231 93 -86 116 -88 303 -37 70
19 130 32 135 30 4 -3 28 -44 54 -90 l46 -86 -49 -57 c-28 -31 -71 -77 -97
-102 -53 -51 -85 -106 -85 -147 0 -15 7 -64 16 -108 22 -106 22 -324 0 -430
-9 -44 -16 -93 -16 -108 0 -41 32 -96 85 -147 26 -25 69 -71 97 -102 l49 -57
-46 -86 c-26 -46 -50 -87 -54 -90 -5 -2 -65 11 -135 30 -187 51 -210 49 -303
-37 -116 -107 -235 -179 -380 -231 -130 -47 -136 -55 -189 -254 l-37 -143 -97
0 -97 0 -37 143 c-53 199 -59 207 -189 253 -147 53 -239 111 -419 265 -56 48
-104 49 -262 5 -71 -19 -132 -33 -137 -31 -4 3 -28 44 -54 90 l-46 86 49 57
c28 31 71 77 97 102 53 51 85 106 85 147 0 15 -7 64 -16 108 -22 106 -22 324
0 430 9 44 16 93 16 108 0 41 -32 96 -85 147 -26 25 -69 71 -97 102 l-49 57
46 86 c26 46 50 87 54 90 5 2 66 -12 137 -31 158 -44 206 -43 262 5 180 154
272 212 419 265 130 46 136 54 189 254 l37 142 97 0 97 0 37 -142z"/>
<path d="M3212 2575 c-30 -7 -92 -32 -140 -55 -148 -74 -270 -215 -330 -382
-23 -65 -26 -88 -26 -213 -1 -129 1 -147 28 -223 73 -213 255 -382 471 -437
76 -19 234 -19 310 0 138 35 281 129 362 238 188 254 188 580 0 834 -81 109
-224 203 -362 238 -72 18 -238 19 -313 0z m303 -338 c89 -46 147 -115 176
-208 53 -171 -18 -343 -176 -427 -44 -23 -61 -27 -145 -27 -79 0 -103 4 -141
23 -74 36 -125 87 -161 160 -79 159 -32 356 107 452 72 50 110 60 205 57 68
-3 95 -9 135 -30z"/>
</g>
</svg>
