<?xml version="1.0" ?>
<!-- Uploaded to: SVG Repo, www.svgrepo.com, Generator: SVG Repo Mixer Tools -->
<svg fill="#000000" width="800px" height="800px" viewBox="0 0 512 512" xmlns="http://www.w3.org/2000/svg">
<g id="School_bell">
<path d="M188.3135,385.1682a183.3559,183.3559,0,0,1-69.0322-25.44v62.4986A43.7731,43.7731,0,0,0,163.0547,466H268.0078a43.6352,43.6352,0,0,0,41.853-31.6322,248.9521,248.9521,0,0,1-94.3274,18.5093C180.67,453.6387,162.8027,408.3335,188.3135,385.1682Z"/>
<path d="M425.5313,175.0625c-28.5294-.2328-39.0012,38.3881-14.7422,52.6463A196.1358,196.1358,0,0,1,215.5334,400.3771a13.125,13.125,0,1,0,0,26.25A222.3932,222.3932,0,0,0,437.116,229.4232a28.4086,28.4086,0,0,0-11.5847-54.3607Z"/>
<path d="M373.0313,203.4989a157.5,157.5,0,0,0-315,.0011C66.3262,412.42,364.7662,412.3614,373.0313,203.4989ZM215.5334,172.875c40.3876,1.0243,40.3812,60.2321-.0021,61.25C175.1415,233.1007,175.1479,173.894,215.5334,172.875Z"/>
</g>
</svg>