<svg width="500" height="500" viewBox="0 0 24 24" fill="none" xmlns="http://www.w3.org/2000/svg"><path fill-rule="evenodd" clip-rule="evenodd" d="M6.5 10.45V20C6.5 20.2761 6.27614 20.5 6 20.5C5.72386 20.5 5.5 20.2761 5.5 20V10.45C4.35888 10.2184 3.5 9.20948 3.5 8V3.5H4.5V8.5C4.5 9.00169 5.5 9.52735 5.50072 9.00169C5.50143 8.47603 5.50072 3.5 5.50072 3.5H6.49961C6.49961 3.5 6.49921 8.49098 6.49961 9.00169C6.5 9.5124 7.50238 9 7.50238 8.5V3.5H8.5V8C8.5 9.20948 7.64112 10.2184 6.5 10.45ZM13.5 5.5C13.5 4.39543 13.1046 3.5 12 3.5C10.8954 3.5 10.5 4.39543 10.5 5.5V19.5C10.5 20.0523 10.5 20.5 11.0012 20.5C11.5 20.5 11.5 20.0523 11.5 19.5V13.5359L12.4128 13.0678C13.0802 12.7254 13.5 12.0383 13.5 11.2882V5.5ZM11.4993 5.36776C11.4955 4.87798 11.4925 4.5 12 4.5C12.5075 4.5 12.5045 4.87798 12.5007 5.36776C12.5003 5.41103 12.5 5.45517 12.5 5.5V11.2882C12.5 11.6633 12.2901 12.0068 11.9564 12.178L11.5 12.4794V5.5C11.5 5.45517 11.4997 5.41103 11.4993 5.36776ZM15.5 4.5H16.5V13.5H15.5C14.3954 13.5 13.5 14.3954 13.5 15.5V18.5C13.5 19.6046 14.3954 20.5 15.5 20.5H18.5C19.6046 20.5 20.5 19.6046 20.5 18.5V15.5C20.5 14.3954 19.6046 13.5 18.5 13.5H17.5V4.5H18.5V3.5H15.5V4.5ZM16.5 14.5H17.5V19.5H16.5V14.5ZM14.5 15.5C14.5 14.9477 14.9477 14.5 15.5 14.5V19.5C14.9477 19.5 14.5 19.0523 14.5 18.5V15.5ZM19.5 18.5C19.5 19.0523 19.0523 19.5 18.5 19.5V14.5C19.0523 14.5 19.5 14.9477 19.5 15.5V18.5Z" fill="currentColor"></path></svg>