<svg width="500" height="500" viewBox="0 0 24 24" fill="none" xmlns="http://www.w3.org/2000/svg"><path fill-rule="evenodd" clip-rule="evenodd" d="M3.94737 14.3693H20.0526V13.4249H3.94737V14.3693ZM20.0526 15.3247V21H3.94737V15.3247H3V12.4737H21V15.3247H20.0526ZM4.89474 15.3247V20.027H19.1053V15.3247H4.89474ZM14.3684 17.1081H15.3158V18.0811H14.3684V17.1081ZM8.68421 17.1081H9.63158V18.0811H8.68421V17.1081ZM12 16.1351C12.7848 16.1351 13.4211 16.7886 13.4211 17.5946C13.4211 18.4006 12.7848 19.0541 12 19.0541C11.2152 19.0541 10.5789 18.4006 10.5789 17.5946C10.5789 16.7886 11.2152 16.1351 12 16.1351ZM11.5263 17.5946C11.5263 17.8633 11.7384 18.0811 12 18.0811C12.2616 18.0811 12.4737 17.8633 12.4737 17.5946C12.4737 17.3259 12.2616 17.1081 12 17.1081C11.7384 17.1081 11.5263 17.3259 11.5263 17.5946ZM12 7.86486C10.692 7.86486 9.63158 6.77583 9.63158 5.43243C9.63158 4.08904 10.692 3 12 3C13.308 3 14.3684 4.08904 14.3684 5.43243C14.3684 6.77583 13.308 7.86486 12 7.86486ZM12 6.89189C12.7848 6.89189 13.4211 6.23847 13.4211 5.43243C13.4211 4.6264 12.7848 3.97297 12 3.97297C11.2152 3.97297 10.5789 4.6264 10.5789 5.43243C10.5789 6.23847 11.2152 6.89189 12 6.89189ZM15.6278 11.6031C15.2376 10.4694 14.1848 9.65718 12.9474 9.65718H11.0526C9.81516 9.65718 8.76241 10.4694 8.37225 11.6031H7.38254C7.80322 9.92453 9.28689 8.68421 11.0526 8.68421H12.9474C14.7131 8.68421 16.1968 9.92453 16.6175 11.6031H15.6278Z" fill="currentColor"></path></svg>