<svg width="500" height="500" viewBox="0 0 24 24" fill="none" xmlns="http://www.w3.org/2000/svg"><path fill-rule="evenodd" clip-rule="evenodd" d="M4 21V14.25C4 14.1119 4.11193 14 4.25 14H5V9.25C5 9.11193 5.11193 9 5.25 9H6V4.25C6 3.51861 7 3.25176 7 3.25176V2.5C7 2.22386 7.22386 2 7.5 2C7.77614 2 8 2.22386 8 2.5V3C8 3 8.55662 2.94188 8.77831 3.25176C9 3.56163 9 4.11193 9 4.25V11H9.75C9.88807 11 10 11.1119 10 11.25V18H10.75C10.8881 18 11 18.1119 11 18.25V21H18V22H2V21H4ZM5 21H10V19H9V12H8V4.01217C8 4.01217 7 4.08667 7 4.55765C7 5.02862 7 10 7 10H6V15H5V21ZM15.5 18C14.1193 18 13 16.8807 13 15.5C13 14.1193 14.1193 13 15.5 13C16.8807 13 18 14.1193 18 15.5C18 16.8807 16.8807 18 15.5 18ZM15.5 17C16.3284 17 17 16.3284 17 15.5C17 14.6716 16.3284 14 15.5 14C14.6716 14 14 14.6716 14 15.5C14 16.3284 14.6716 17 15.5 17ZM15.5 9C15.7761 9 16 9.22386 16 9.5V11.5C16 11.7761 15.7761 12 15.5 12C15.2239 12 15 11.7761 15 11.5V9.5C15 9.22386 15.2239 9 15.5 9ZM19.7678 11.3536C19.963 11.5488 19.963 11.8654 19.7678 12.0607L19.0607 12.7678C18.8654 12.963 18.5488 12.963 18.3536 12.7678C18.1583 12.5725 18.1583 12.2559 18.3536 12.0607L19.0607 11.3536C19.2559 11.1583 19.5725 11.1583 19.7678 11.3536ZM19.7678 19.7678C19.5725 19.963 19.2559 19.963 19.0607 19.7678L18.3536 19.0607C18.1583 18.8654 18.1583 18.5488 18.3536 18.3536C18.5488 18.1583 18.8654 18.1583 19.0607 18.3536L19.7678 19.0607C19.963 19.2559 19.963 19.5725 19.7678 19.7678ZM11.3536 11.3536C11.5488 11.1583 11.8654 11.1583 12.0607 11.3536L12.7678 12.0607C12.963 12.2559 12.963 12.5725 12.7678 12.7678C12.5725 12.963 12.2559 12.963 12.0607 12.7678L11.3536 12.0607C11.1583 11.8654 11.1583 11.5488 11.3536 11.3536ZM22 15.5C22 15.7761 21.7761 16 21.5 16H19.5C19.2239 16 19 15.7761 19 15.5C19 15.2239 19.2239 15 19.5 15H21.5C21.7761 15 22 15.2239 22 15.5ZM6 14H6.75C6.88807 14 7 14.1119 7 14.25V15.5C7 15.7761 6.77614 16 6.5 16C6.22386 16 6 15.7761 6 15.5V14ZM8.25 18H9V19.5C9 19.7761 8.77614 20 8.5 20C8.22386 20 8 19.7761 8 19.5V18.25C8 18.1119 8.11193 18 8.25 18Z" fill="currentColor"></path></svg>