<svg width="500" height="500" viewBox="0 0 24 24" fill="none" xmlns="http://www.w3.org/2000/svg"><path fill-rule="evenodd" clip-rule="evenodd" d="M12.5 5V13H11.5V5H3.75C3.61193 5 3.5 5.11193 3.5 5.25V13H20.5V5.25C20.5 5.11193 20.3881 5 20.25 5H12.5ZM20.5 14H3.5V18.75C3.5 18.8881 3.61193 19 3.75 19H20.25C20.3881 19 20.5 18.8881 20.5 18.75V14ZM3.5 4H20.5C21.0523 4 21.5 4.44772 21.5 5V19C21.5 19.5523 21.0523 20 20.5 20H3.5C2.94772 20 2.5 19.5523 2.5 19V5C2.5 4.44772 2.94772 4 3.5 4ZM11 16H13C13.2761 16 13.5 16.2239 13.5 16.5C13.5 16.7761 13.2761 17 13 17H11C10.7239 17 10.5 16.7761 10.5 16.5C10.5 16.2239 10.7239 16 11 16ZM8.50527 9.53948V7.53948C8.50527 7.26334 8.72913 7.03948 9.00527 7.03948C9.28141 7.03948 9.50527 7.26334 9.50527 7.53948V9.53948C9.50527 9.81563 9.28141 10.0395 9.00527 10.0395C8.72913 10.0395 8.50527 9.81563 8.50527 9.53948ZM14.5 9.53948V7.53948C14.5 7.26334 14.7239 7.03948 15 7.03948C15.2761 7.03948 15.5 7.26334 15.5 7.53948V9.53948C15.5 9.81563 15.2761 10.0395 15 10.0395C14.7239 10.0395 14.5 9.81563 14.5 9.53948Z" fill="currentColor"></path></svg>